<svg xmlns="http://www.w3.org/2000/svg" version="1.1" xmlns:xlink="http://www.w3.org/1999/xlink" width="512" height="512" x="0" y="0" viewBox="0 0 176 176" style="enable-background:new 0 0 512 512" xml:space="preserve" class=""><g><g data-name="Layer 2"><path d="M63.1 80.73H47.88V65.24H63.1s9-.21 9 7.75-9 7.74-9 7.74zM74.75 100.46c0 9.49-10.72 9.25-10.72 9.25H47.88V91.23H64s10.75-.23 10.75 9.23z" fill="#ffffff" opacity="1" data-original="#000000" class=""></path><path d="M118.3 80.87c-5.49 0-10 4.11-10.9 10.55h21.8c-.86-6.42-5.42-10.55-10.9-10.55zm0 0c-5.49 0-10 4.11-10.9 10.55h21.8c-.86-6.42-5.42-10.55-10.9-10.55zM152 0H24A24 24 0 0 0 0 24v128a24 24 0 0 0 24 24h128a24 24 0 0 0 24-24V24a24 24 0 0 0-24-24zm-47.54 58H132v6.86h-27.54zm-26.27 60.73c-3.79 1.87-8.55 2.46-13 2.46H33V53.58h35.39c4.38 0 17.94 2.61 18 15.64 0 9-5 13.12-9.31 15.1 0 0 11.24 3.34 12.14 13.28s-.88 16.12-11.03 21.13zm64.66-18.65H107.4c-.34 7.81 5.37 12.47 11.86 12.47a12.44 12.44 0 0 0 11-6.58h11.61c-3.19 11.62-12.54 16.46-23.59 16.46-14.47 0-24.76-11.6-24.76-25.92s11.09-25.93 24.76-25.93S143 82.19 143 96.51c0 1.24 0 2.42-.15 3.57zM118.3 80.87c-5.49 0-10 4.11-10.9 10.55h21.8c-.86-6.42-5.42-10.55-10.9-10.55z" fill="#ffffff" opacity="1" data-original="#000000" class=""></path></g></g></svg>